<?xml version="1.0" encoding="UTF-8" standalone="no"?>
<svg
   viewBox="0 0 128 128"
   version="1.1"
   id="svg1"
   sodipodi:docname="discord-mark-blue.svg"
   width="128"
   height="128"
   inkscape:version="1.3.2 (091e20ef0f, 2023-11-25)"
   xmlns:inkscape="http://www.inkscape.org/namespaces/inkscape"
   xmlns:sodipodi="http://sodipodi.sourceforge.net/DTD/sodipodi-0.dtd"
   xmlns="http://www.w3.org/2000/svg"
   xmlns:svg="http://www.w3.org/2000/svg">
  <defs
     id="defs1" />
  <sodipodi:namedview
     id="namedview1"
     pagecolor="#ffffff"
     bordercolor="#000000"
     borderopacity="0.25"
     inkscape:showpageshadow="2"
     inkscape:pageopacity="0.0"
     inkscape:pagecheckerboard="0"
     inkscape:deskcolor="#d1d1d1"
     inkscape:zoom="3.3416355"
     inkscape:cx="63.591615"
     inkscape:cy="48.030373"
     inkscape:window-width="1896"
     inkscape:window-height="1026"
     inkscape:window-x="0"
     inkscape:window-y="0"
     inkscape:window-maximized="1"
     inkscape:current-layer="svg1" />
  <path
     fill="#5865f2"
     d="m 107.7,26.612099 a 105.15,105.15 0 0 0 -26.23,-8.07 72.06,72.06 0 0 0 -3.36,6.83 97.68,97.68 0 0 0 -29.11,0 72.37,72.37 0 0 0 -3.36,-6.83 105.89,105.89 0 0 0 -26.25,8.09 c -16.6,24.56 -21.1,48.51 -18.85,72.12 v 0 a 105.73,105.73 0 0 0 32.17,16.150001 77.7,77.7 0 0 0 6.89,-11.11 68.42,68.42 0 0 1 -10.85,-5.180001 c 0.91,-0.66 1.8,-1.34 2.66,-2 a 75.57,75.57 0 0 0 64.32,0 c 0.87,0.71 1.76,1.39 2.66,2 a 68.68,68.68 0 0 1 -10.87,5.190001 77,77 0 0 0 6.89,11.1 105.25,105.25 0 0 0 32.19,-16.140001 v 0 c 2.64,-27.38 -4.51,-51.11 -18.9,-72.15 z m -65.25,57.62 c -6.27,0 -11.45,-5.69 -11.45,-12.69 0,-7 5,-12.74 11.43,-12.74 6.43,0 11.57,5.74 11.46,12.74 -0.11,7 -5.05,12.69 -11.44,12.69 z m 42.24,0 c -6.28,0 -11.44,-5.69 -11.44,-12.69 0,-7 5,-12.74 11.44,-12.74 6.44,0 11.54,5.74 11.43,12.74 -0.11,7 -5.04,12.69 -11.43,12.69 z"
     id="path1" />
</svg>
