<svg id="Layer_1" data-name="Layer 1" xmlns="http://www.w3.org/2000/svg" viewBox="0 0 81.78 71.15"><defs><style>.cls-1{fill:#f37726;}.cls-2{fill:#616161;}</style></defs><title>logo-square</title><path class="cls-1" d="M4.8,45.87q2.7,8.46,13.78,8.75h9.17q9.63,0,13.13,7.53Q44.3,54.62,54,54.62h8.45q11.76,0,14.55-8.72l4.78,1.6Q79.71,54.88,75,58.58T62.63,62.33H53.88q-10,0-10,8.82h-6q0-8.82-10.13-8.82H19.33q-7.83,0-12.53-3.78T0,47.5Z"/><path class="cls-2" d="M20.39,41.34A13.88,13.88,0,0,1,14.23,40a10.59,10.59,0,0,1-4.42-4.06A14.17,14.17,0,0,1,8,29.14L8,29h5.3c.07,2.74.7,4.75,1.88,6.05a6.58,6.58,0,0,0,5.09,1.92,6.73,6.73,0,0,0,3.8-1,5.9,5.9,0,0,0,2.2-2.75,10.43,10.43,0,0,0,.72-4V4.33l-5.44-.72V0H37.11V3.55l-4.57.78V29.19a14,14,0,0,1-1.39,6.39,9.92,9.92,0,0,1-4.09,4.25A13.43,13.43,0,0,1,20.39,41.34Zm20.91-.59V37.22l4.56-.78V4.33L41.3,3.55V0H58.88q6.39,0,10,2.75c2.4,1.83,3.59,4.59,3.59,8.27a7.59,7.59,0,0,1-1.71,4.86,10.37,10.37,0,0,1-4.55,3.18,9.53,9.53,0,0,1,4.22,2,10,10,0,0,1,2.73,3.58,10.92,10.92,0,0,1,1,4.64q0,5.59-3.64,8.55t-9.86,3Zm10.08-4.31h9.23a8.5,8.5,0,0,0,5.86-1.86,6.68,6.68,0,0,0,2.09-5.28,10,10,0,0,0-.76-4.11,5.64,5.64,0,0,0-2.36-2.63,7.65,7.65,0,0,0-4-.93H51.38Zm0-19.11h8.93a6.7,6.7,0,0,0,4.79-1.72,6.17,6.17,0,0,0,1.84-4.7A5.89,5.89,0,0,0,64.86,6a9.38,9.38,0,0,0-6-1.64h-7.5Z"/></svg>
